<svg height="512" viewBox="0 0 64 64" width="512" xmlns="http://www.w3.org/2000/svg"><path d="m61 2h-42a1 1 0 0 0 -1 1v58a1 1 0 0 0 1 1h42a1 1 0 0 0 1-1v-58a1 1 0 0 0 -1-1zm-22 58h-16v-48h16zm18 0h-16v-48h16zm3 0h-1v-49a1 1 0 0 0 -1-1h-36a1 1 0 0 0 -1 1v49h-1v-56h40z"/><path d="m15 21h-12a1 1 0 0 0 -1 1v20a1 1 0 0 0 1 1h12a1 1 0 0 0 1-1v-20a1 1 0 0 0 -1-1zm-1 20h-10v-18h10z"/><path d="m12.86 29.49-3-5a1.037 1.037 0 0 0 -1.72 0l-3 5a1 1 0 0 0 .86 1.51h6a1 1 0 0 0 .86-1.51zm-5.09-.49 1.23-2.06 1.23 2.06z"/><path d="m8.143 39.515a1 1 0 0 0 1.714 0l3-5a1 1 0 0 0 -.857-1.515h-6a1 1 0 0 0 -.857 1.515zm2.091-4.515-1.234 2.056-1.234-2.056z"/><path d="m25 6h2v2h-2z"/><path d="m29 6h2v2h-2z"/><path d="m33 6h2v2h-2z"/><path d="m37 6h2v2h-2z"/><path d="m41 6h2v2h-2z"/><path d="m45 6h2v2h-2z"/><path d="m49 6h2v2h-2z"/><path d="m53 6h2v2h-2z"/></svg>